<svg width="500" height="500" viewBox="0 0 500 500" fill="none" xmlns="http://www.w3.org/2000/svg">
<path d="M249.53 479.3C377.19 479.3 480.68 419.548 480.68 345.84C480.68 272.132 377.19 212.38 249.53 212.38C121.869 212.38 18.3799 272.132 18.3799 345.84C18.3799 419.548 121.869 479.3 249.53 479.3Z" fill="#202024"/>
<path d="M428.59 369.86L367.92 334.86C367.659 334.771 367.432 334.603 367.271 334.379C367.111 334.155 367.024 333.886 367.024 333.61C367.024 333.334 367.111 333.065 367.271 332.841C367.432 332.617 367.659 332.449 367.92 332.36L406.92 309.88C407.591 309.54 408.333 309.363 409.085 309.363C409.837 309.363 410.579 309.54 411.25 309.88L471.91 344.88C472.171 344.969 472.398 345.137 472.559 345.361C472.719 345.585 472.806 345.854 472.806 346.13C472.806 346.406 472.719 346.675 472.559 346.899C472.398 347.123 472.171 347.291 471.91 347.38L432.91 369.87C432.24 370.207 431.499 370.381 430.749 370.38C429.998 370.378 429.259 370.2 428.59 369.86Z" fill="#323238"/>
<path d="M165.86 436.45C222.154 436.45 267.79 410.102 267.79 377.6C267.79 345.098 222.154 318.75 165.86 318.75C109.566 318.75 63.9299 345.098 63.9299 377.6C63.9299 410.102 109.566 436.45 165.86 436.45Z" fill="#323238"/>
<path d="M262.08 404.02C298.746 404.02 328.47 386.859 328.47 365.69C328.47 344.521 298.746 327.36 262.08 327.36C225.414 327.36 195.69 344.521 195.69 365.69C195.69 386.859 225.414 404.02 262.08 404.02Z" fill="#323238"/>
<path d="M64.51 327.72L65.33 314.72C65.33 314.72 64.56 298.11 48.1 282.79C38.1 273.48 29.83 278.49 27.76 283.56C25.69 288.63 27.41 296.32 37.13 303.51C52.35 314.76 65.13 332.57 66.79 345.2L64.51 327.72Z" fill="#37474F"/>
<path d="M63.9999 324.05C63.8652 324.063 63.7301 324.03 63.6172 323.955C63.5044 323.88 63.4206 323.769 63.3799 323.64C55.8899 298.84 34.3799 283.96 34.1099 283.81C34.0475 283.766 33.9948 283.709 33.9551 283.643C33.9155 283.578 33.8897 283.505 33.8794 283.429C33.8691 283.353 33.8744 283.276 33.8952 283.202C33.9159 283.128 33.9516 283.06 33.9999 283C34.0853 282.873 34.2173 282.786 34.367 282.756C34.5168 282.726 34.6724 282.756 34.7999 282.84C35.0199 282.99 56.9099 298.09 64.5199 323.29C64.5612 323.436 64.5448 323.592 64.474 323.726C64.4033 323.86 64.2836 323.962 64.1399 324.01L63.9999 324.05Z" fill="white"/>
<path d="M65.1699 328.15C65.0737 326.73 64.547 325.373 63.6599 324.26C62.0599 322.41 59.2599 321.81 57.9099 319.76C57.3748 318.74 56.9459 317.668 56.6299 316.56C55.6279 314.173 53.7593 312.255 51.3999 311.19C49.039 310.162 46.4375 309.816 43.8899 310.19C41.9599 310.43 40.0899 311.02 38.1599 311.29C31.8299 312.2 25.9699 306.39 19.6699 310.29C15.8899 312.65 16.1499 316.77 18.2499 320.22C19.3485 321.975 20.7267 323.539 22.3299 324.85C24.0299 326.29 25.8199 327.16 25.9999 329.66C26.1199 331.48 25.5499 333.29 25.5699 335.12C25.6418 336.622 26.0363 338.09 26.7266 339.426C27.4168 340.761 28.3865 341.933 29.5699 342.86C31.9597 344.696 34.7724 345.903 37.7499 346.37C39.9399 346.79 42.4599 347.12 43.6699 348.99C44.1753 350.013 44.5129 351.11 44.6699 352.24C45.1948 354.049 46.0985 355.725 47.3209 357.158C48.5433 358.59 50.0564 359.747 51.7599 360.55C55.1971 362.128 59.0082 362.71 62.7599 362.23C65.9917 362.009 69.0901 360.856 71.6799 358.91C75.9599 355.41 73.4999 348.8 70.6799 345.12C69.4499 343.5 67.9299 342.12 66.7999 340.43C64.5399 337.08 64.9099 334.18 65.1199 330.35C65.197 329.619 65.2137 328.883 65.1699 328.15Z" fill="#455A64"/>
<path d="M68.5098 352.79C68.4129 352.809 68.3124 352.797 68.2227 352.756C68.1329 352.715 68.0584 352.646 68.0098 352.56C52.6998 325 28.1398 317.3 27.8898 317.22C27.77 317.183 27.6694 317.101 27.6096 316.99C27.5498 316.88 27.5355 316.751 27.5698 316.63C27.609 316.509 27.6934 316.409 27.8053 316.349C27.9172 316.289 28.0479 316.275 28.1698 316.31C28.4198 316.39 53.3398 324.21 68.8398 352.1C68.8701 352.154 68.8894 352.213 68.8967 352.274C68.904 352.336 68.8992 352.398 68.8824 352.457C68.8657 352.517 68.8375 352.572 68.7993 352.621C68.7611 352.669 68.7137 352.71 68.6599 352.74C68.6152 352.77 68.5634 352.787 68.5098 352.79Z" fill="white"/>
<path d="M53.9099 333.84H53.7999C47.0699 333.56 36.8899 336.26 36.7999 336.29C36.7395 336.308 36.676 336.313 36.6134 336.306C36.5508 336.298 36.4905 336.278 36.4361 336.246C36.3817 336.214 36.3344 336.171 36.2973 336.12C36.2601 336.07 36.2338 336.012 36.2199 335.95C36.2033 335.89 36.1986 335.828 36.2062 335.766C36.2138 335.705 36.2335 335.645 36.2641 335.591C36.2948 335.537 36.3359 335.49 36.3849 335.452C36.434 335.414 36.49 335.386 36.5499 335.37C36.9699 335.26 46.9799 332.6 53.8499 332.89C53.9746 332.881 54.0978 332.921 54.1925 333.003C54.2872 333.084 54.3456 333.2 54.3549 333.325C54.3642 333.45 54.3236 333.573 54.242 333.668C54.1604 333.762 54.0446 333.821 53.9199 333.83L53.9099 333.84Z" fill="white"/>
<path d="M48.9999 329.27C48.876 329.282 48.7523 329.246 48.6539 329.17C48.5555 329.094 48.4897 328.983 48.4699 328.86C48.0791 325.458 48.17 322.017 48.7399 318.64C48.7641 318.518 48.8355 318.411 48.9386 318.342C49.0417 318.272 49.168 318.246 49.2899 318.27C49.3512 318.281 49.4096 318.304 49.462 318.337C49.5143 318.371 49.5594 318.415 49.5948 318.466C49.6301 318.517 49.655 318.574 49.6679 318.635C49.6808 318.696 49.6815 318.759 49.6699 318.82C49.1283 322.099 49.0442 325.438 49.4199 328.74C49.434 328.866 49.3978 328.992 49.3191 329.092C49.2404 329.191 49.1257 329.255 48.9999 329.27Z" fill="white"/>
<path opacity="0.3" d="M460.24 135.55L275.33 28.8C272.55 27.2 270.33 28.5 270.33 31.71V178.15C270.421 179.895 270.921 181.594 271.79 183.111C272.658 184.627 273.871 185.918 275.33 186.88L460.24 293.63C463.02 295.23 465.24 293.93 465.24 290.72V144.28C465.149 142.535 464.649 140.835 463.781 139.319C462.912 137.803 461.699 136.511 460.24 135.55Z" fill="#00B37E"/>
<path opacity="0.5" d="M460.24 135.55L275.33 28.8C272.55 27.2 270.33 28.5 270.33 31.71V178.15C270.421 179.895 270.921 181.594 271.79 183.111C272.658 184.627 273.871 185.918 275.33 186.88L460.24 293.63C463.02 295.23 465.24 293.93 465.24 290.72V144.28C465.149 142.535 464.649 140.835 463.781 139.319C462.912 137.803 461.699 136.511 460.24 135.55Z" fill="#202024"/>
<path opacity="0.3" d="M461.22 266.06V247.3L449.03 240.3V254.38L445 252V228.54L436.87 223.85V233.23L432.81 230.88V249.64L424.66 245V230.88L420.6 228.54V223.85L416.53 221.5V216.81L412.47 214.47V219.16L408.41 216.81V221.5L404.35 219.16V223.85L396.22 219.16V205.09L384.04 198.09V221.5L380 219.16V205.09L371.87 200.39V214.47L367.81 212.12V207.43L359.69 202.74V193.36L351.56 188.67V193.36L347.48 191V205.1L343.42 202.75V184L339.36 181.65V176.96L335.29 174.62V169.93L331.23 167.58V172.27L327.17 169.93V174.62L323.11 172.27V195.7L319.05 193.36V184L307 177V181.77L298.73 177V167.62L294.66 165.28V160.59L290.6 158.24V153.55L286.54 151.21V155.89L282.48 153.55V158.24L278.42 155.89V165.28L270.29 160.58V178.21C270.381 179.955 270.881 181.654 271.749 183.171C272.618 184.687 273.831 185.978 275.29 186.94L460.24 293.63C463.02 295.23 465.24 293.93 465.24 290.72V268.41L461.22 266.06Z" fill="#00B37E"/>
<g opacity="0.3">
<path d="M273.08 29.12C273.701 29.1509 274.303 29.3403 274.83 29.67L459.74 136.41C461.051 137.284 462.143 138.449 462.931 139.814C463.718 141.179 464.18 142.707 464.28 144.28V290.72C464.28 291.5 464.1 293.31 462.49 293.31C461.869 293.279 461.267 293.09 460.74 292.76L275.83 186C274.517 185.128 273.423 183.964 272.635 182.598C271.848 181.233 271.387 179.703 271.29 178.13V31.71C271.29 30.93 271.47 29.12 273.08 29.12ZM273.08 28.12C271.43 28.12 270.29 29.43 270.29 31.71V178.15C270.381 179.895 270.881 181.595 271.749 183.111C272.618 184.627 273.831 185.918 275.29 186.88L460.24 293.63C460.919 294.047 461.694 294.281 462.49 294.31C464.14 294.31 465.28 293 465.28 290.72V144.28C465.189 142.535 464.689 140.835 463.821 139.319C462.952 137.803 461.739 136.512 460.28 135.55L275.33 28.8C274.651 28.3831 273.876 28.1489 273.08 28.12Z" fill="#00B37E"/>
</g>
<path opacity="0.5" d="M323.64 104.55L403.81 150.84C408.6 153.6 412.47 160.31 412.47 165.84V188.05C412.47 193.57 408.6 195.81 403.81 193.05L323.64 146.76C318.86 144 314.98 137.29 314.98 131.76V109.55C315 104 318.86 101.79 323.64 104.55Z" fill="#323238"/>
<g opacity="0.5">
<path d="M407.68 194.74C406.22 194.688 404.799 194.254 403.56 193.48L323.39 147.2C318.48 144.36 314.48 137.44 314.48 131.76V109.55C314.48 106.69 315.48 104.55 317.27 103.55C319.06 102.55 321.42 102.73 323.89 104.16L404.06 150.44C408.98 153.28 412.97 160.2 412.97 165.88V188.09C412.97 190.95 411.97 193.09 410.19 194.09C409.425 194.524 408.559 194.748 407.68 194.74ZM319.78 103.86C319.079 103.85 318.388 104.029 317.78 104.38C316.31 105.23 315.49 107.06 315.49 109.55V131.76C315.49 137.12 319.26 143.65 323.9 146.33L404.07 192.62C406.22 193.86 408.22 194.07 409.7 193.22C411.18 192.37 411.98 190.53 411.98 188.05V165.84C411.98 160.48 408.21 153.95 403.57 151.27L323.39 105C322.306 104.312 321.062 103.919 319.78 103.86Z" fill="#00B37E"/>
</g>
<g opacity="0.5">
<path d="M336.41 122.74C337.235 123.227 337.98 123.837 338.62 124.55C339.275 125.28 339.854 126.074 340.35 126.92C340.818 127.714 341.201 128.555 341.49 129.43C341.741 130.135 341.89 130.873 341.93 131.62C341.937 131.687 341.929 131.756 341.907 131.82C341.884 131.883 341.848 131.942 341.8 131.99C341.763 132.024 341.715 132.042 341.665 132.042C341.615 132.042 341.567 132.024 341.53 131.99L339.07 130.58C338.913 130.481 338.772 130.36 338.65 130.22C338.53 130.047 338.419 129.866 338.32 129.68C338.32 129.6 338.23 129.47 338.15 129.29C338.05 129.075 337.933 128.867 337.8 128.67C337.633 128.422 337.445 128.188 337.24 127.97C336.996 127.718 336.716 127.502 336.41 127.33C336.192 127.207 335.964 127.1 335.73 127.01C335.546 126.937 335.348 126.903 335.15 126.91C335.069 126.913 334.99 126.933 334.917 126.97C334.845 127.006 334.781 127.057 334.73 127.12C334.608 127.306 334.552 127.528 334.57 127.75C334.571 128.033 334.633 128.312 334.75 128.57C334.908 128.89 335.11 129.186 335.35 129.45C335.7 129.846 336.074 130.22 336.47 130.57L338.19 132.12C338.843 132.697 339.448 133.326 340 134C340.504 134.616 340.937 135.287 341.29 136C341.632 136.693 341.891 137.425 342.06 138.18C342.235 139.002 342.319 139.84 342.31 140.68C342.343 141.495 342.196 142.308 341.88 143.06C341.637 143.614 341.21 144.066 340.67 144.34C340.092 144.596 339.448 144.662 338.83 144.53C338.013 144.367 337.232 144.063 336.52 143.63C335.655 143.13 334.869 142.503 334.19 141.77C333.504 141.029 332.897 140.218 332.38 139.35C331.89 138.526 331.491 137.651 331.19 136.74C330.919 135.961 330.767 135.145 330.74 134.32C330.734 134.252 330.741 134.183 330.761 134.118C330.782 134.052 330.816 133.992 330.86 133.94C330.897 133.906 330.945 133.888 330.995 133.888C331.045 133.888 331.093 133.906 331.13 133.94L333.59 135.36C333.749 135.443 333.889 135.559 334 135.7C334.116 135.846 334.216 136.004 334.3 136.17L334.53 136.68C334.646 136.942 334.78 137.196 334.93 137.44C335.112 137.746 335.326 138.031 335.57 138.29C335.847 138.587 336.167 138.84 336.52 139.04C337.021 139.365 337.588 139.577 338.18 139.66C338.62 139.7 338.84 139.43 338.84 138.85C338.837 138.547 338.754 138.251 338.6 137.99C338.397 137.629 338.152 137.294 337.87 136.99C337.54 136.64 337.13 136.24 336.62 135.79C336.11 135.34 335.52 134.79 334.83 134.18C333.627 133.138 332.661 131.848 332 130.4C331.387 128.987 331.084 127.46 331.11 125.92C331.094 125.184 331.216 124.451 331.47 123.76C331.673 123.202 332.043 122.72 332.53 122.38C333.029 122.062 333.621 121.921 334.21 121.98C334.991 122.066 335.743 122.326 336.41 122.74Z" fill="#00B37E"/>
<path d="M355.09 133.82C355.252 133.923 355.377 134.073 355.45 134.25C355.546 134.45 355.597 134.668 355.6 134.89V138C355.608 138.083 355.599 138.166 355.573 138.245C355.547 138.325 355.505 138.398 355.45 138.46C355.401 138.504 355.337 138.529 355.27 138.529C355.204 138.529 355.14 138.504 355.09 138.46L351.79 136.55V151.36C351.798 151.444 351.789 151.529 351.763 151.61C351.737 151.691 351.696 151.766 351.64 151.83C351.59 151.872 351.526 151.895 351.46 151.895C351.394 151.895 351.331 151.872 351.28 151.83L348.83 150.41C348.669 150.307 348.543 150.157 348.47 149.98C348.374 149.78 348.323 149.562 348.32 149.34V134.53L345.02 132.62C344.859 132.517 344.733 132.367 344.66 132.19C344.564 131.99 344.513 131.772 344.51 131.55V128.49C344.502 128.407 344.512 128.324 344.538 128.244C344.563 128.165 344.605 128.092 344.66 128.03C344.71 127.986 344.774 127.961 344.84 127.961C344.907 127.961 344.971 127.986 345.02 128.03L355.09 133.82Z" fill="#00B37E"/>
<path d="M364.32 139.14C364.572 139.294 364.771 139.52 364.89 139.79C365.008 140.043 365.099 140.308 365.16 140.58L369.25 161.14C369.289 161.294 369.312 161.451 369.32 161.61C369.326 161.678 369.318 161.747 369.298 161.812C369.277 161.877 369.244 161.938 369.2 161.99C369.16 162.025 369.108 162.044 369.055 162.044C369.002 162.044 368.95 162.025 368.91 161.99L366.55 160.62C366.317 160.501 366.13 160.307 366.02 160.07C365.921 159.886 365.853 159.686 365.82 159.48L365.29 156.78L360.29 153.9L359.77 155.99C359.742 156.131 359.673 156.26 359.57 156.36C359.47 156.46 359.29 156.44 359.04 156.29L356.69 155C356.556 154.913 356.451 154.787 356.39 154.64C356.313 154.481 356.272 154.307 356.27 154.13C356.278 153.997 356.305 153.865 356.35 153.74L360.44 137.91C360.483 137.728 360.577 137.561 360.71 137.43C360.84 137.29 361.03 137.3 361.28 137.43L364.32 139.14ZM361.32 150.01L364.32 151.76L362.8 144L361.32 150.01Z" fill="#00B37E"/>
<path d="M377.84 147C378.644 147.466 379.386 148.031 380.05 148.68C380.7 149.324 381.259 150.054 381.71 150.85C382.181 151.688 382.534 152.586 382.76 153.52C383.014 154.55 383.139 155.609 383.13 156.67C383.19 157.787 382.991 158.902 382.55 159.93C382.399 160.255 382.169 160.538 381.881 160.751C381.593 160.964 381.255 161.101 380.9 161.15L383.22 169.37C383.257 169.483 383.277 169.601 383.28 169.72C383.287 169.787 383.28 169.854 383.259 169.918C383.239 169.981 383.205 170.04 383.16 170.09C383.118 170.126 383.065 170.146 383.01 170.146C382.955 170.146 382.902 170.126 382.86 170.09L380.31 168.62C380.076 168.493 379.89 168.293 379.78 168.05C379.678 167.837 379.595 167.617 379.53 167.39L377.45 160L375.72 159V165.18C375.728 165.263 375.718 165.346 375.693 165.426C375.667 165.505 375.625 165.578 375.57 165.64C375.521 165.684 375.457 165.709 375.39 165.709C375.324 165.709 375.26 165.684 375.21 165.64L372.76 164.22C372.6 164.111 372.475 163.958 372.4 163.78C372.303 163.584 372.252 163.369 372.25 163.15V144.5C372.243 144.417 372.253 144.334 372.278 144.255C372.304 144.176 372.346 144.103 372.4 144.04C372.45 143.998 372.514 143.974 372.58 143.974C372.646 143.974 372.71 143.998 372.76 144.04L377.84 147ZM375.72 154.53L377.84 155.75C378.025 155.885 378.236 155.98 378.46 156.03C378.684 156.08 378.915 156.083 379.14 156.04C379.49 155.93 379.66 155.47 379.66 154.66C379.697 153.956 379.516 153.257 379.14 152.66C378.807 152.161 378.362 151.747 377.84 151.45L375.72 150.22V154.53Z" fill="#00B37E"/>
<path d="M396.22 157.56C396.377 157.67 396.498 157.823 396.57 158C396.67 158.195 396.725 158.411 396.73 158.63V161.7C396.736 161.783 396.725 161.867 396.697 161.946C396.67 162.025 396.627 162.098 396.57 162.16C396.521 162.202 396.459 162.224 396.395 162.224C396.331 162.224 396.269 162.202 396.22 162.16L392.92 160.26V175.07C392.927 175.153 392.918 175.236 392.892 175.315C392.866 175.394 392.825 175.467 392.77 175.53C392.721 175.574 392.657 175.599 392.59 175.599C392.524 175.599 392.46 175.574 392.41 175.53L390 174.16C389.844 174.05 389.722 173.897 389.65 173.72C389.553 173.524 389.502 173.309 389.5 173.09V158.27L386.2 156.37C386.04 156.261 385.915 156.108 385.84 155.93C385.743 155.734 385.692 155.519 385.69 155.3V152.24C385.682 152.156 385.692 152.07 385.717 151.99C385.743 151.909 385.785 151.834 385.84 151.77C385.891 151.728 385.954 151.704 386.02 151.704C386.086 151.704 386.15 151.728 386.2 151.77L396.22 157.56Z" fill="#00B37E"/>
</g>
<path opacity="0.3" d="M288.58 45.33C290.353 46.4886 291.828 48.0483 292.886 49.8828C293.944 51.7174 294.555 53.7753 294.67 55.89C294.67 59.77 291.94 61.35 288.58 59.4C286.805 58.2459 285.328 56.6886 284.27 54.8552C283.212 53.0217 282.602 50.964 282.49 48.85C282.49 45 285.21 43.39 288.58 45.33Z" fill="#00B37E"/>
<path d="M292.1 53.2599C292.099 52.5714 291.956 51.8905 291.68 51.2599C291.43 50.5955 290.984 50.0233 290.4 49.6199C289.52 49.0999 288.79 50.1499 288.67 51.3899C288.57 50.0199 287.85 48.1199 286.97 47.5999C286.774 47.4648 286.537 47.4037 286.301 47.4275C286.065 47.4513 285.844 47.5585 285.68 47.7299C285.362 48.1628 285.206 48.6938 285.24 49.2299C285.24 51.3299 286.49 53.2299 287.54 55.2299L288.66 57.3299L289.78 56.5399C290.83 55.7699 292.1 55.3599 292.1 53.2599Z" fill="#FAFAFA"/>
<path opacity="0.3" d="M306.86 55.89C308.642 57.0402 310.128 58.5955 311.195 60.4289C312.262 62.2624 312.88 64.322 313 66.44C313 70.33 310.27 71.9 306.91 69.96C305.136 68.8025 303.66 67.2431 302.602 65.4083C301.544 63.5735 300.933 61.515 300.82 59.4C300.77 55.52 303.49 53.94 306.86 55.89Z" fill="#00B37E"/>
<path d="M310.3 63.8399C310.29 63.1514 310.144 62.4718 309.87 61.8399C309.618 61.1714 309.168 60.5958 308.58 60.1899C307.71 59.6799 306.97 60.7299 306.86 61.9699C306.75 60.5999 306.03 58.6899 305.16 58.1799C304.964 58.0421 304.724 57.9794 304.486 58.0033C304.247 58.0271 304.025 58.136 303.86 58.3099C303.54 58.742 303.384 59.2736 303.42 59.8099C303.42 61.9099 304.67 63.8099 305.72 65.8099L306.83 67.9099L308 67.0999C309 66.3499 310.29 65.9299 310.3 63.8399Z" fill="#FAFAFA"/>
<path opacity="0.3" d="M325.14 66.4399C326.913 67.5979 328.389 69.1575 329.447 70.9922C330.505 72.8268 331.116 74.885 331.23 76.9999C331.23 80.8899 328.5 82.4599 325.14 80.5199C323.362 79.3726 321.879 77.822 320.812 75.9942C319.745 74.1663 319.124 72.1126 319 69.9999C319 66.0699 321.77 64.4999 325.14 66.4399Z" fill="#00B37E"/>
<path d="M328.58 74.3899C328.572 73.7012 328.426 73.021 328.15 72.3899C327.894 71.7264 327.445 71.155 326.86 70.7499C325.98 70.2299 325.25 71.2799 325.14 72.5199C325.03 71.1499 324.31 69.2499 323.43 68.7299C323.235 68.5948 322.998 68.5337 322.761 68.5575C322.525 68.5814 322.305 68.6885 322.14 68.8599C321.818 69.2915 321.659 69.8226 321.69 70.3599C321.69 72.4599 322.94 74.3599 324 76.3599L325.11 78.4599L326.23 77.6699C327.3 76.8999 328.57 76.4899 328.58 74.3899Z" fill="#FAFAFA"/>
<path d="M343 78.1499L428.22 127.35C429.455 128.125 430.491 129.179 431.243 130.428C431.995 131.677 432.443 133.086 432.55 134.54C432.55 137.13 430.61 138.11 428.22 136.73L343 87.5299C341.765 86.7554 340.729 85.7009 339.977 84.4518C339.224 83.2027 338.777 81.7941 338.67 80.3399C338.7 77.7499 340.64 76.7699 343 78.1499Z" fill="#FAFAFA"/>
<path opacity="0.5" d="M341.1 81.71C341.153 82.4374 341.375 83.1422 341.751 83.7676C342.126 84.393 342.643 84.9213 343.26 85.31L428.87 134.8C430.06 135.49 431.03 135 431.03 133.7C430.976 132.974 430.752 132.271 430.377 131.648C430.002 131.024 429.486 130.498 428.87 130.11L343.26 80.62C342.07 79.93 341.1 80.42 341.1 81.71Z" fill="#00B37E"/>
<g opacity="0.3">
<path d="M437 135.29C436.977 135.191 436.977 135.089 437 134.99C436.998 134.952 437.006 134.915 437.024 134.881C437.041 134.848 437.068 134.82 437.1 134.8L439.03 133.63L439.21 133.53C439.247 133.511 439.288 133.502 439.33 133.502C439.372 133.502 439.413 133.511 439.45 133.53L440.54 134.16C440.619 134.209 440.679 134.283 440.71 134.37C440.759 134.466 440.786 134.572 440.79 134.68V143.63C440.793 143.67 440.788 143.711 440.774 143.749C440.76 143.787 440.738 143.821 440.71 143.85C440.71 143.9 440.61 143.9 440.54 143.85L439.36 143.17C439.284 143.118 439.225 143.045 439.19 142.96C439.148 142.865 439.124 142.763 439.12 142.66V136.6L438.05 137.23C438.003 137.27 437.943 137.27 437.87 137.23C437.796 137.17 437.74 137.09 437.71 137L437 135.29Z" fill="#00B37E"/>
<path d="M445.14 136.72C445.585 136.979 445.978 137.318 446.3 137.72C446.627 138.107 446.9 138.538 447.11 139C447.322 139.475 447.483 139.971 447.59 140.48C447.689 140.988 447.749 141.503 447.77 142.02C447.77 142.42 447.77 142.84 447.77 143.28C447.77 143.72 447.77 144.11 447.77 144.49C447.755 144.935 447.695 145.377 447.59 145.81C447.509 146.155 447.344 146.474 447.11 146.74C446.896 146.958 446.605 147.083 446.3 147.09C445.887 147.074 445.486 146.946 445.14 146.72C444.697 146.458 444.304 146.119 443.98 145.72C443.659 145.33 443.39 144.899 443.18 144.44C442.959 143.969 442.798 143.471 442.7 142.96C442.593 142.453 442.53 141.938 442.51 141.42C442.51 141.04 442.51 140.63 442.51 140.19C442.51 139.75 442.51 139.34 442.51 138.95C442.523 138.504 442.586 138.061 442.7 137.63C442.775 137.283 442.94 136.962 443.18 136.7C443.391 136.484 443.678 136.358 443.98 136.35C444.394 136.36 444.797 136.488 445.14 136.72ZM446.14 143.43C446.14 142.65 446.14 141.88 446.14 141.1C446.14 140.86 446.14 140.63 446.08 140.42C446.043 140.216 445.99 140.015 445.92 139.82C445.849 139.64 445.751 139.471 445.63 139.32C445.504 139.165 445.352 139.033 445.18 138.93C445.048 138.84 444.89 138.794 444.73 138.8C444.672 138.806 444.616 138.824 444.566 138.853C444.516 138.882 444.473 138.922 444.44 138.97C444.362 139.096 444.308 139.235 444.28 139.38C444.248 139.579 444.228 139.779 444.22 139.98C444.22 140.73 444.22 141.51 444.22 142.31C444.224 142.534 444.244 142.758 444.28 142.98C444.305 143.187 444.359 143.389 444.44 143.58C444.509 143.764 444.607 143.937 444.73 144.09C444.856 144.245 445.008 144.377 445.18 144.48C445.312 144.57 445.47 144.616 445.63 144.61C445.688 144.605 445.744 144.587 445.794 144.558C445.844 144.528 445.887 144.488 445.92 144.44C446.007 144.318 446.065 144.178 446.09 144.03C446.11 143.831 446.113 143.63 446.1 143.43H446.14Z" fill="#00B37E"/>
<path d="M454.37 145.3C454.372 145.548 454.351 145.795 454.31 146.04C454.28 146.254 454.22 146.463 454.13 146.66C454.044 146.846 453.929 147.018 453.79 147.17C453.638 147.326 453.463 147.458 453.27 147.56L452.01 148.3L454.27 149.61C454.346 149.662 454.405 149.735 454.44 149.82C454.487 149.913 454.511 150.016 454.51 150.12V151.59C454.515 151.629 454.511 151.67 454.499 151.707C454.487 151.745 454.467 151.78 454.44 151.81C454.429 151.821 454.416 151.83 454.401 151.836C454.386 151.842 454.371 151.845 454.355 151.845C454.339 151.845 454.324 151.842 454.309 151.836C454.294 151.83 454.281 151.821 454.27 151.81L449.52 149.07C449.441 149.021 449.381 148.947 449.35 148.86C449.3 148.768 449.273 148.665 449.27 148.56V147.36C449.27 147.221 449.29 147.083 449.33 146.95C449.344 146.897 449.37 146.847 449.404 146.804C449.438 146.761 449.481 146.726 449.53 146.7L452.22 145.29C452.404 145.204 452.548 145.05 452.62 144.86C452.672 144.688 452.699 144.509 452.7 144.33C452.7 144.26 452.7 144.17 452.7 144.04C452.679 143.904 452.645 143.77 452.6 143.64C452.537 143.49 452.46 143.346 452.37 143.21C452.26 143.062 452.12 142.94 451.96 142.85C451.904 142.807 451.839 142.776 451.77 142.759C451.702 142.741 451.63 142.738 451.56 142.75C451.462 142.769 451.373 142.822 451.31 142.9C451.254 142.982 451.214 143.073 451.19 143.17C451.19 143.27 451.14 143.34 451.13 143.39C451.12 143.44 451.05 143.56 450.99 143.57C450.912 143.567 450.836 143.543 450.77 143.5L449.66 142.87C449.599 142.823 449.55 142.761 449.52 142.69C449.481 142.616 449.461 142.534 449.46 142.45C449.465 142.088 449.518 141.728 449.62 141.38C449.711 141.086 449.872 140.818 450.09 140.6C450.3 140.405 450.574 140.295 450.86 140.29C451.252 140.296 451.633 140.414 451.96 140.63C452.356 140.863 452.711 141.161 453.01 141.51C453.308 141.862 453.563 142.248 453.77 142.66C453.968 143.08 454.122 143.519 454.23 143.97C454.325 144.407 454.372 144.853 454.37 145.3Z" fill="#00B37E"/>
<path d="M457.56 150.84L457.7 151.19C457.751 151.316 457.815 151.436 457.89 151.55C457.961 151.678 458.048 151.795 458.15 151.9C458.251 152.018 458.373 152.116 458.51 152.19C458.617 152.264 458.741 152.309 458.87 152.32C458.967 152.355 459.073 152.355 459.17 152.32C459.267 152.264 459.341 152.175 459.38 152.07C459.442 151.918 459.47 151.754 459.46 151.59C459.46 151.271 459.377 150.958 459.22 150.68C459.071 150.4 458.846 150.167 458.57 150.01C458.497 149.963 458.416 149.932 458.33 149.92H458.12H457.95C457.905 149.936 457.855 149.936 457.81 149.92L456.41 149.11C456.333 149.053 456.271 148.977 456.23 148.89C456.181 148.798 456.161 148.694 456.17 148.59L456.44 143.8C456.437 143.721 456.462 143.643 456.51 143.58C456.521 143.569 456.534 143.56 456.549 143.554C456.563 143.548 456.579 143.545 456.595 143.545C456.611 143.545 456.626 143.548 456.641 143.554C456.656 143.56 456.669 143.569 456.68 143.58L460.53 145.8C460.606 145.851 460.666 145.925 460.7 146.01C460.747 146.103 460.771 146.206 460.77 146.31V147.78C460.775 147.82 460.771 147.86 460.759 147.898C460.747 147.935 460.727 147.97 460.7 148C460.689 148.011 460.675 148.02 460.661 148.026C460.646 148.032 460.631 148.035 460.615 148.035C460.599 148.035 460.583 148.032 460.569 148.026C460.554 148.02 460.541 148.011 460.53 148L457.91 146.48L457.85 147.68C457.972 147.655 458.098 147.655 458.22 147.68C458.387 147.709 458.546 147.77 458.69 147.86C459.062 148.067 459.399 148.33 459.69 148.64C459.994 148.966 460.256 149.329 460.47 149.72C460.695 150.137 460.866 150.58 460.98 151.04C461.105 151.534 461.169 152.041 461.17 152.55C461.185 153.009 461.114 153.467 460.96 153.9C460.862 154.205 460.665 154.469 460.4 154.65C460.156 154.813 459.859 154.877 459.57 154.83C459.215 154.774 458.875 154.649 458.57 154.46C458.163 154.224 457.793 153.931 457.47 153.59C457.154 153.249 456.882 152.869 456.66 152.46C456.444 152.07 456.273 151.658 456.15 151.23C456.032 150.837 455.968 150.43 455.96 150.02C455.956 149.953 455.973 149.886 456.01 149.83C456.032 149.814 456.058 149.806 456.085 149.806C456.112 149.806 456.138 149.814 456.16 149.83L457.3 150.49C457.39 150.545 457.465 150.62 457.52 150.71C457.535 150.753 457.548 150.796 457.56 150.84Z" fill="#00B37E"/>
</g>
<path d="M243.75 354.61C243.67 354.44 238.18 344.91 238.18 344.91C238.18 344.91 239.36 345.61 244.88 342.5C246.942 341.242 248.866 339.771 250.62 338.11L254.28 345.16C256.61 347.64 261.5 344.94 267.07 342.79C268 342.43 268.95 342.01 269.9 341.58H269.96C273.01 340.58 276.61 341.64 274.08 345.13C271.55 348.62 266.5 351 261.83 353.13C256.21 355.75 246.33 360.18 243.75 354.61Z" fill="#B16668"/>
<path d="M284.71 342.94C285.387 343.811 285.818 344.846 285.96 345.94C286.14 347.11 284.33 351.73 279.96 355.4C275.59 359.07 269.45 360.85 266.78 362.4C264.11 363.95 261.89 366.34 258.7 368.06C255.51 369.78 252.26 371.06 248.26 369.74C247.38 368.93 246.09 366.88 246.26 366.61C246.63 366 284.71 342.94 284.71 342.94Z" fill="#263238"/>
<path d="M255.44 345.93C258.03 346.87 262.3 344.63 267.07 342.79C271.56 341.05 276.35 338.06 279.79 338.33C283.23 338.6 286.79 341.62 283.79 347.48C282.91 349.18 280.94 352.28 279.05 353.57C274.26 356.84 269.55 358.23 266.37 359.96C262.23 362.21 260.32 364.8 256.37 366.35C251.23 368.35 247.52 367.86 246.24 366.69C244.96 365.52 241.12 354.32 243.45 353.97C243.45 353.97 245.37 357.41 253.09 351.56C256.46 349 255.8 346.72 255.44 345.93Z" fill="#00B37E"/>
<path opacity="0.4" d="M255.44 345.93C258.03 346.87 262.3 344.63 267.07 342.79C271.56 341.05 276.35 338.06 279.79 338.33C283.23 338.6 286.79 341.62 283.79 347.48C282.91 349.18 280.94 352.28 279.05 353.57C274.26 356.84 269.55 358.23 266.37 359.96C262.23 362.21 260.32 364.8 256.37 366.35C251.23 368.35 247.52 367.86 246.24 366.69C244.96 365.52 241.12 354.32 243.45 353.97C243.45 353.97 245.37 357.41 253.09 351.56C256.46 349 255.8 346.72 255.44 345.93Z" fill="black"/>
<path d="M271.73 348.21C271.73 348.21 269.97 343.53 266.08 343.21C265.723 343.147 265.356 343.186 265.02 343.322C264.683 343.458 264.393 343.686 264.18 343.98C264.18 343.98 267.61 343.6 270.18 348.98C270.18 348.98 270.45 349.3 271.13 348.98C271.36 348.84 271.86 348.6 271.73 348.21Z" fill="#FAFAFA"/>
<path d="M261.25 345.12C261.25 345.12 261.2 344.96 262 344.58C262.307 344.419 262.661 344.37 263 344.44C263 344.44 266 344.89 267.77 349.8C267.799 350.011 267.753 350.226 267.642 350.408C267.531 350.59 267.361 350.728 267.16 350.8C267.074 350.858 266.977 350.897 266.874 350.916C266.772 350.935 266.667 350.932 266.566 350.909C266.465 350.885 266.369 350.841 266.286 350.78C266.202 350.718 266.132 350.64 266.08 350.55C266.08 350.55 264.15 345.39 261.25 345.12Z" fill="#FAFAFA"/>
<path d="M258.42 346C258.42 346 258.49 345.65 259.12 345.5C259.91 345.29 260.17 345.5 260.17 345.5C260.17 345.5 262.57 346.94 263.69 351.15C263.69 351.15 263.95 351.84 262.98 352.15C262.01 352.46 261.98 351.64 261.98 351.64C261.98 351.64 260.19 346.41 258.42 346Z" fill="#FAFAFA"/>
<path d="M221.86 285.8C229.61 297.71 252.86 339.59 252.86 339.59C252.86 339.59 247.13 348.27 238.2 347.33L204.2 296.49L221.86 285.8Z" fill="#37474F"/>
<path d="M276.29 372.08C275.13 370.93 269.9 362.36 269.9 362.36C269.9 362.36 273.82 363.66 279.58 361.01C282.51 359.66 284.71 355.74 284.71 355.74L289.08 364.11C291.21 366.77 295.95 364.79 301.67 363.11C302.67 362.83 303.61 362.49 304.59 362.11H304.65C307.78 361.38 311.27 362.72 308.47 365.98C305.67 369.24 300.47 371.22 295.6 372.98C289.8 375.13 280.66 376.4 276.29 372.08Z" fill="#B16668"/>
<path d="M321.45 362.71C322.105 363.716 322.475 364.881 322.52 366.08C322.62 367.35 320.28 372.13 315.27 375.68C310.26 379.23 303.55 380.59 300.55 382.06C297.55 383.53 294.98 385.85 291.41 387.41C287.84 388.97 284.25 390.1 280.08 388.29C279.21 387.35 278.02 385.04 278.2 384.76C278.68 384 321.45 362.71 321.45 362.71Z" fill="#263238"/>
<path d="M289.9 363.26C290.304 363.437 290.718 363.59 291.14 363.72C291.56 363.795 291.99 363.795 292.41 363.72C293.423 363.633 294.427 363.459 295.41 363.2C297.84 362.58 300.21 361.72 302.62 361.01C307.62 359.54 312.97 356.76 316.62 357.35C320.27 357.94 324.2 361.35 320.46 367.41C319.026 369.746 317.199 371.816 315.06 373.53C309.89 377.02 303.95 377.76 300.39 379.33C295.77 381.38 293.5 383.98 289.11 385.33C283.44 387.02 279.51 386.17 278.24 384.8C277.53 384.04 277.24 379.39 275.78 376.01C274.54 373.11 274.29 371.01 275.41 370.93C275.723 371.275 276.079 371.577 276.47 371.83C276.911 372.18 277.417 372.439 277.96 372.59C278.717 372.772 279.492 372.869 280.27 372.88C281.655 373.02 283.053 372.932 284.41 372.62C284.792 372.538 285.141 372.343 285.41 372.06C285.7 371.617 285.827 371.087 285.77 370.56C285.77 370.1 285.77 369.63 285.77 369.17C285.757 368.916 285.791 368.662 285.87 368.42C286.006 368.15 286.205 367.917 286.45 367.74C287.233 367.19 287.871 366.46 288.31 365.61C288.547 364.902 288.625 364.151 288.54 363.41C288.525 363.281 288.553 363.151 288.62 363.04C288.76 362.88 289.02 362.94 289.22 363.04C289.42 363.14 289.67 363.16 289.9 363.26Z" fill="#00B37E"/>
<path opacity="0.4" d="M289.9 363.26C290.304 363.437 290.718 363.59 291.14 363.72C291.56 363.795 291.99 363.795 292.41 363.72C293.423 363.633 294.427 363.459 295.41 363.2C297.84 362.58 300.21 361.72 302.62 361.01C307.62 359.54 312.97 356.76 316.62 357.35C320.27 357.94 324.2 361.35 320.46 367.41C319.026 369.746 317.199 371.816 315.06 373.53C309.89 377.02 303.95 377.76 300.39 379.33C295.77 381.38 293.5 383.98 289.11 385.33C283.44 387.02 279.51 386.17 278.24 384.8C277.53 384.04 277.24 379.39 275.78 376.01C274.54 373.11 274.29 371.01 275.41 370.93C275.723 371.275 276.079 371.577 276.47 371.83C276.911 372.18 277.417 372.439 277.96 372.59C278.717 372.772 279.492 372.869 280.27 372.88C281.655 373.02 283.053 372.932 284.41 372.62C284.792 372.538 285.141 372.343 285.41 372.06C285.7 371.617 285.827 371.087 285.77 370.56C285.77 370.1 285.77 369.63 285.77 369.17C285.757 368.916 285.791 368.662 285.87 368.42C286.006 368.15 286.205 367.917 286.45 367.74C287.233 367.19 287.871 366.46 288.31 365.61C288.547 364.902 288.625 364.151 288.54 363.41C288.525 363.281 288.553 363.151 288.62 363.04C288.76 362.88 289.02 362.94 289.22 363.04C289.42 363.14 289.67 363.16 289.9 363.26Z" fill="black"/>
<path d="M307.09 367.22C307.09 367.22 305.63 362.05 301.49 361.34C301.113 361.244 300.717 361.254 300.346 361.371C299.975 361.488 299.644 361.705 299.39 362C299.39 362 303.1 361.89 305.39 367.86C305.39 367.86 305.64 368.23 306.39 367.95C306.64 367.86 307.21 367.65 307.09 367.22Z" fill="#FAFAFA"/>
<path d="M296.15 363C296.15 363 296.15 362.83 297 362.5C297.345 362.354 297.729 362.329 298.09 362.43C298.09 362.43 301.21 363.17 302.72 368.58C302.728 368.806 302.659 369.027 302.525 369.209C302.39 369.391 302.198 369.521 301.98 369.58C301.882 369.633 301.774 369.666 301.663 369.677C301.552 369.688 301.44 369.676 301.334 369.642C301.227 369.609 301.129 369.554 301.044 369.481C300.959 369.409 300.89 369.32 300.84 369.22C300.84 369.22 299.23 363.53 296.15 363Z" fill="#FAFAFA"/>
<path d="M293.05 363.65C293.05 363.65 293.16 363.29 293.84 363.18C294.7 363.03 294.96 363.33 294.96 363.33C294.96 363.33 297.4 365.08 298.23 369.68C298.23 369.68 298.45 370.44 297.38 370.68C296.31 370.92 296.31 370.05 296.31 370.05C296.31 370.05 294.91 364.28 293.05 363.65Z" fill="#FAFAFA"/>
<path d="M259.31 302.91C264.91 312.85 278.81 342.61 285.98 357.38C282.377 361.776 277.25 364.654 271.62 365.44L234 313.71L245.2 304.28L259.31 302.91Z" fill="#455A64"/>
<path d="M131.12 292.68C131.12 292.68 176.54 278.97 184.44 276.81C192.34 274.65 206.82 271.75 211.25 273.74C215.68 275.73 218.18 279.22 220.88 283.48C223.68 287.9 225.74 291.93 225.74 291.93C225.74 291.93 196 300.06 178 300.06C160 300.06 131.12 292.68 131.12 292.68Z" fill="#37474F"/>
<path d="M134.3 274.82C131.45 284.55 127.74 301.89 140.85 314.55C145.96 319.49 175.27 335.2 193.27 329.68C213.38 323.51 237.39 311.62 237.39 311.62C237.39 311.62 249.53 312.33 253.48 310.05C257.43 307.77 259.83 304 259.31 302.91C253.04 289.91 247.82 283.15 234.25 284.51C217.65 286.17 189.99 291.21 189.99 291.21L134.3 274.82Z" fill="#455A64"/>
<path d="M201.87 204.36C193.27 196.83 181.2 200.26 174.49 206.79C164.21 216.79 158.11 229.49 160.37 235.79C163 243 201.87 204.36 201.87 204.36Z" fill="#455A64"/>
<path d="M303.47 248.41C303.65 247.16 302.64 245.74 300.6 244.7L276.8 232.53C273.156 230.915 269.061 230.632 265.23 231.73L243.47 239.23C241.57 239.89 240.53 240.81 240.47 241.71C240.42 242.37 240.07 244.93 240.05 245.66C240.03 246.39 240.5 246.93 241.51 247.44C243.95 248.69 249.42 249.1 253.72 248.36L259.24 247.42C263.54 246.68 269 247.09 271.43 248.32C272.905 249.036 274.085 250.241 274.77 251.73L273.49 256.16C273.185 256.965 273.185 257.854 273.49 258.66L273.09 260.06C272.6 261.73 272.44 263.48 276.6 265.32C277.908 265.976 279.361 266.289 280.823 266.231C282.285 266.174 283.708 265.747 284.96 264.99L301.83 253.99C302.153 253.81 302.432 253.561 302.646 253.26C302.861 252.959 303.006 252.614 303.07 252.25C303.15 251.6 303.38 249.05 303.47 248.41Z" fill="#455A64"/>
<path d="M275.87 254.71L275.95 243.17L268.77 241.29L268.12 247.37C269.263 247.527 270.378 247.847 271.43 248.32C272.905 249.036 274.085 250.241 274.77 251.73L274.25 253.52L275.87 254.71Z" fill="#263238"/>
<path d="M302.15 245.73C304.32 247.73 304.48 248.32 303.88 256.2C303.28 264.08 301.49 264.29 299.47 262.94C297.45 261.59 296.08 257.84 293.6 259.37L302.15 245.73Z" fill="#455A64"/>
<path d="M241.93 243.54C244.37 244.79 249.84 245.2 254.14 244.46L259.66 243.52C263.96 242.78 269.42 243.19 271.85 244.42C274.28 245.65 275.85 248.02 275.36 249.69L273.49 256.16C273 257.83 272.84 259.58 277 261.42C278.308 262.075 279.761 262.388 281.223 262.33C282.684 262.272 284.108 261.846 285.36 261.09L302.23 250.14C304.42 248.72 303.69 246.28 300.6 244.7L276.8 232.53C273.157 230.915 269.061 230.632 265.23 231.73L243.47 239.23C240.17 240.37 239.48 242.3 241.93 243.54Z" fill="#00B37E"/>
<path opacity="0.2" d="M241.93 243.54C244.37 244.79 249.84 245.2 254.14 244.46L259.66 243.52C263.96 242.78 269.42 243.19 271.85 244.42C274.28 245.65 275.85 248.02 275.36 249.69L273.49 256.16C273 257.83 272.84 259.58 277 261.42C278.308 262.075 279.761 262.388 281.223 262.33C282.684 262.272 284.108 261.846 285.36 261.09L302.23 250.14C304.42 248.72 303.69 246.28 300.6 244.7L276.8 232.53C273.157 230.915 269.061 230.632 265.23 231.73L243.47 239.23C240.17 240.37 239.48 242.3 241.93 243.54Z" fill="black"/>
<path d="M294.81 244.64C294.79 244.509 294.736 244.386 294.653 244.283C294.571 244.179 294.463 244.099 294.34 244.05C293.92 243.854 293.465 243.743 293.001 243.724C292.538 243.705 292.075 243.778 291.64 243.94C291.22 244.11 291.01 244.34 290.99 244.59C290.97 244.84 290.9 245.36 290.89 245.53C290.88 245.7 291.04 245.98 291.36 246.16C292.209 246.554 293.179 246.597 294.06 246.28C294.46 246.12 294.68 245.89 294.71 245.65C294.74 245.41 294.82 244.83 294.81 244.64Z" fill="#263238"/>
<path d="M289.06 247C289.045 246.864 288.993 246.734 288.91 246.625C288.828 246.516 288.717 246.431 288.59 246.38C288.17 246.184 287.715 246.073 287.251 246.054C286.788 246.035 286.325 246.108 285.89 246.27C285.49 246.43 285.27 246.66 285.25 246.89C285.23 247.12 285.15 247.7 285.14 247.89C285.155 248.026 285.207 248.156 285.29 248.265C285.372 248.374 285.483 248.459 285.61 248.51C286.459 248.904 287.43 248.948 288.31 248.63C288.71 248.47 288.93 248.24 288.96 248.01C288.99 247.78 289.06 247.19 289.06 247Z" fill="#37474F"/>
<path d="M289.41 244.45C289.41 244.23 289.26 244 288.94 243.82C288.091 243.426 287.121 243.382 286.24 243.7C285.84 243.86 285.62 244.09 285.59 244.33C285.56 244.57 285.51 245.12 285.49 245.28C285.47 245.44 285.63 245.74 285.96 245.93C286.38 246.126 286.836 246.237 287.299 246.256C287.763 246.275 288.225 246.202 288.66 246.04C289.07 245.88 289.29 245.64 289.31 245.4C289.33 245.16 289.4 244.62 289.41 244.45Z" fill="#263238"/>
<path d="M294.45 247.27C294.45 247.05 294.31 246.82 293.98 246.64C293.562 246.442 293.109 246.329 292.647 246.308C292.185 246.288 291.724 246.36 291.29 246.52C290.89 246.68 290.67 246.91 290.64 247.14C290.61 247.37 290.56 247.93 290.54 248.14C290.52 248.35 290.67 248.6 291.01 248.8C291.86 249.192 292.831 249.232 293.71 248.91C294.11 248.75 294.32 248.52 294.35 248.29C294.38 248.06 294.45 247.44 294.45 247.27Z" fill="#37474F"/>
<path d="M291.64 243.94C290.84 244.26 290.77 244.84 291.46 245.23C292.309 245.624 293.28 245.667 294.16 245.35C294.96 245.02 295.03 244.44 294.34 244.05C293.92 243.854 293.465 243.743 293.001 243.724C292.538 243.705 292.075 243.778 291.64 243.94Z" fill="#455A64"/>
<path d="M285.89 246.29C285.1 246.61 285.02 247.19 285.71 247.58C286.559 247.974 287.529 248.018 288.41 247.7C289.21 247.37 289.29 246.79 288.59 246.4C288.17 246.204 287.715 246.093 287.251 246.074C286.788 246.055 286.325 246.129 285.89 246.29Z" fill="#455A64"/>
<path d="M286.24 243.7C285.44 244.03 285.36 244.6 286.06 244.99C286.48 245.188 286.935 245.301 287.398 245.321C287.862 245.342 288.325 245.27 288.76 245.11C289.55 244.79 289.63 244.21 288.94 243.82C288.091 243.426 287.121 243.382 286.24 243.7Z" fill="#455A64"/>
<path d="M291.29 246.52C290.49 246.84 290.41 247.42 291.11 247.81C291.959 248.204 292.929 248.247 293.81 247.93C294.6 247.6 294.68 247.03 293.98 246.64C293.562 246.442 293.109 246.329 292.647 246.308C292.185 246.288 291.724 246.36 291.29 246.52Z" fill="#455A64"/>
<path d="M273.15 234.12L270.62 232.71L267.75 233.88L265.22 232.47L262.34 233.65L262.23 234.72L263.7 235.54L262 236.23L261.88 237.3L264.41 238.71L267.28 237.53L269.81 238.94L272.68 237.77L272.8 236.7L271.33 235.88L273.03 235.18L273.15 234.12Z" fill="#37474F"/>
<path d="M270.62 232.71L267.75 233.88L265.22 232.47L262.34 233.65L264.87 235.06L262 236.23L264.52 237.64L267.4 236.47L269.92 237.88L272.8 236.7L270.27 235.29L273.15 234.12L270.62 232.71Z" fill="#455A64"/>
<path d="M267.4 236.47L267.28 237.53L264.41 238.71L264.52 237.64L267.4 236.47Z" fill="#263238"/>
<path d="M270.27 235.29L271.33 235.88L273.03 235.18L273.15 234.12L270.27 235.29Z" fill="#263238"/>
<path d="M272.8 236.7L272.68 237.77L269.81 238.94L269.92 237.88L272.8 236.7Z" fill="#263238"/>
<path d="M264.87 235.06L262.34 233.65L262.22 234.77L263.7 235.54L264.87 235.06Z" fill="#263238"/>
<path d="M243.25 231.83C249.25 230.47 252.82 231.52 257.93 231.31C259.58 231.25 260.98 230.36 261.79 230.51C263.34 230.81 263.22 232.42 262.22 233.51C261.22 234.6 260.07 235.63 255.64 236.32C251.86 236.92 251.71 236.49 247.28 237.86L242.43 240.14L240.73 235.97L243.25 231.83Z" fill="#B16668"/>
<path d="M254 231.31C250.813 229.941 247.294 229.538 243.88 230.15C238.99 231.31 240.74 236.32 240.74 236.32L254 231.31Z" fill="#B16668"/>
<path d="M229.89 205.91L215.39 218.88L196.24 212.16L209.92 193.15L229.89 205.91Z" fill="#B16668"/>
<path d="M244.3 181C244.3 181 249.16 188.38 248.61 189.11C248.06 189.84 244.47 190.49 244.47 190.49L244.3 181Z" fill="#9A4A4D"/>
<path d="M230.79 160.62C240.63 162.69 243.47 167.02 244.4 182.62C245.4 198.96 243.7 204.1 241.56 206.3C240.11 207.78 232.06 208.05 228 206.93C222.91 205.53 211.42 201.46 206 193.24C199.68 183.57 198 170.47 204.79 165.09C214.36 157.56 226.79 159.77 230.79 160.62Z" fill="#B16668"/>
<path d="M228.45 207.07C232.68 208.13 239.16 207.7 241.11 206.64C238.728 207.092 236.271 206.944 233.96 206.21C231.656 205.548 229.467 204.536 227.47 203.21L228.45 207.07Z" fill="#9A4A4D"/>
<path d="M246.58 167.37C243.77 169.21 240.39 169.92 237.07 170.37C237.27 173.02 236.37 175.62 235.49 178.13C234.88 179.87 232.7 185.32 230.49 182.25C228.92 180.03 227.49 178.01 224.39 178.48C219.27 179.24 218.58 185.77 221.8 189.74C225.02 193.71 228.04 192.19 228.04 192.19C228.04 192.19 228.35 199.19 224.53 204.12C222.463 205.117 220.213 205.678 217.92 205.769C215.627 205.86 213.34 205.479 211.2 204.65C206.34 202.93 199.4 196.58 196.9 191.7C190.03 178.25 190.28 165.53 199.08 161.81C200.08 155.46 205.08 152.62 210.72 151.31C218.62 149.49 226.67 154.61 234.33 151.53C235.95 150.88 237.44 149.94 239.09 149.39C239.535 149.188 240.02 149.089 240.508 149.101C240.997 149.113 241.476 149.236 241.91 149.46C242.558 150.018 242.973 150.8 243.07 151.65C243.526 153.155 243.382 154.778 242.67 156.18C243.805 155.597 245.017 155.179 246.27 154.94C246.898 154.827 247.543 154.849 248.162 155.004C248.781 155.159 249.36 155.444 249.86 155.84C250.712 156.682 251.203 157.822 251.23 159.02C251.49 162.36 249.37 165.53 246.58 167.37Z" fill="#263238"/>
<path d="M199 163.94L193.11 160.47C193.586 159.721 194.334 159.186 195.196 158.979C196.059 158.771 196.968 158.907 197.733 159.357C198.497 159.807 199.057 160.537 199.293 161.392C199.53 162.247 199.425 163.161 199 163.94Z" fill="#263238"/>
<path d="M201.87 204.36C191.03 201.12 182.1 202.76 167.94 216.25C152.42 231 141 256.06 137 283.09C137 283.09 137.53 295.58 152 303.89C167.35 312.7 191.07 310.55 200.6 294.69C200.6 294.69 202.6 280.56 208.93 273C213.03 268.1 222.51 257.28 229.51 249.55C235.6 242.82 241.96 226.41 232.39 218.68C229.58 216.42 226.82 214.68 222.93 212.12C213 213.88 200.09 208 201.87 204.36Z" fill="#00B37E"/>
<path opacity="0.75" d="M201.87 204.36C191.03 201.12 182.1 202.76 167.94 216.25C152.42 231 141 256.06 137 283.09C137 283.09 137.53 295.58 152 303.89C167.35 312.7 191.07 310.55 200.6 294.69C200.6 294.69 202.6 280.56 208.93 273C213.03 268.1 222.51 257.28 229.51 249.55C235.6 242.82 241.96 226.41 232.39 218.68C229.58 216.42 226.82 214.68 222.93 212.12C213 213.88 200.09 208 201.87 204.36Z" fill="white"/>
<path opacity="0.1" d="M230.39 248.53L230.87 247.91L231.08 247.63L231.6 246.89C231.6 246.83 231.69 246.77 231.73 246.7C231.95 246.373 232.17 246.04 232.39 245.7C232.413 245.67 232.43 245.636 232.44 245.6C232.64 245.29 232.83 244.96 233.02 244.6L233.15 244.36C233.32 244.05 233.5 243.73 233.66 243.36C233.697 243.302 233.731 243.242 233.76 243.18C234.387 241.945 234.944 240.677 235.43 239.38V239.31C236.638 236.193 237.265 232.882 237.28 229.54C233.999 234.938 229.783 239.709 224.83 243.63C218.5 248.63 211.06 252.14 205.07 257.53C198.73 263.25 193.71 270.53 188.16 277C185.93 279.58 182.66 284.72 179.26 284.45C175.11 284.12 171.91 278.54 170.17 274.76C167.39 268.76 165.32 261.41 161.58 255.93C158.31 251.14 153.09 244.85 147.44 246.54C142.329 258.197 138.817 270.492 137 283.09C137 283.09 137.53 295.58 152 303.89C153.29 304.64 154.626 305.308 156 305.89C156.42 305.96 156.84 306.05 157.25 306.15C159.32 306.69 161.25 307.7 163.38 308.15L164.14 308.3L165 308.45L165.92 308.59L166.7 308.7L167.7 308.82L168.39 308.88L169.47 308.96H170.12H171.22H173H173.7L174.7 308.91L175.49 308.85L176.4 308.77L177.27 308.67L178.1 308.56L179.1 308.4L179.75 308.28C180.18 308.2 180.6 308.12 181.02 308.02L181.29 307.96C189.16 306.11 196.42 301.71 200.66 294.65C200.66 294.65 200.76 293.97 200.97 292.84C201.04 292.51 201.11 292.15 201.19 291.75C201.35 290.97 201.56 290.05 201.81 289.04C202.67 285.465 203.882 281.985 205.43 278.65C205.99 277.476 206.621 276.337 207.32 275.24C207.67 274.7 208.03 274.18 208.41 273.68L209 273L209.83 272C213.68 267.45 220.76 259.36 226.83 252.57L229.56 249.57L230.22 248.79L230.39 248.53Z" fill="#00B37E"/>
<path d="M294.16 264.43C290.81 269.77 290.16 273.12 275.67 274.25C275.67 274.25 248.48 291.31 239.75 294.44C231.02 297.57 227.87 292.66 226.05 284.75C224.23 276.84 219.46 247 219.46 247C219.46 247 215.67 228.59 231.13 218.13C237.68 223.13 241.13 228.24 242.23 237.04C243.52 247.57 245.4 272.3 245.4 272.3C245.4 272.3 268.33 262.3 271.79 258.86C272.808 257.78 273.728 256.612 274.54 255.37C276 253.37 278.06 251.19 278.64 248.56C279.55 244.39 281.47 244.97 282.16 247.26C282.966 250.209 282.942 253.324 282.09 256.26C282.09 256.26 289.18 261.83 292.66 259.96L293.6 259.36C293.987 259.086 294.46 258.959 294.932 259.001C295.405 259.043 295.847 259.252 296.18 259.59C296.37 260.55 296.21 261.17 294.16 264.43Z" fill="#B16668"/>
<path d="M229.39 216.44C238.11 220.55 242.39 227.12 243.29 237.06C244.19 247 245.4 264.27 245.4 264.27C245.4 264.27 244.86 270.57 236.52 273.5C234.164 274.37 231.637 274.673 229.142 274.384C226.647 274.096 224.256 273.224 222.16 271.84L218.7 249.34C218.7 249.34 213.81 225 229.39 216.44Z" fill="#455A64"/>
<path d="M166.06 289.21C151.79 271.75 138.52 250.8 127.54 244.47C107.78 233.09 67.6399 258.1 63.2499 315.17C58.8599 372.24 101 404.22 141.73 413C162.58 417.48 189.98 412.94 200.73 409.22C233.5 397.87 251.85 381.99 259.73 360.04C268.33 335.98 261.82 321.51 250.62 315.35C245.575 312.645 239.776 311.689 234.13 312.63C194.29 318.87 177.11 302.73 166.06 289.21Z" fill="#00B37E"/>
<path opacity="0.2" d="M215.85 403.15L217.65 402.31C220.51 388.31 218.9 375.19 212.8 363.05C206.8 351.2 196.61 340.1 181.52 329.05C159.27 312.82 150.52 297.42 142.1 282.53C139.01 277.07 136.1 271.91 132.56 266.82C124.69 255.46 116.84 249.49 107.87 248.05C104.211 247.497 100.482 247.626 96.8699 248.43C95.6366 249.23 94.4099 250.107 93.1899 251.06C97.7994 249.453 102.725 248.966 107.56 249.64C116.07 251.01 123.56 256.76 131.19 267.74C134.67 272.74 137.58 277.9 140.65 283.32C149.17 298.37 157.99 313.92 180.52 330.32C200 344.58 223.91 367.16 215.85 403.15Z" fill="black"/>
<path opacity="0.1" d="M141.73 413C162.58 417.48 189.98 412.94 200.73 409.22C233.5 397.87 251.85 381.99 259.73 360.04C259.94 359.45 260.12 358.88 260.31 358.3L259.83 358.11C251.44 355.38 242.42 358.65 234.11 361.6C213.21 369.02 189.59 374.51 169.36 365.44C156.04 359.44 142.31 350.11 135.23 337.34C128.15 324.57 124.88 309.98 119.74 296.34C117.42 290.19 115.26 282.24 110.04 276.25C105.15 270.65 98.7 266.58 91.27 266.59C85.17 266.59 79.53 268.43 74.27 274.65C68.59 285.56 64.5001 299.12 63.2701 315.23C58.8601 372.25 101 404.22 141.73 413Z" fill="black"/>
<path d="M433.45 365.54L461.85 349.14C462.592 348.655 463.209 348.002 463.652 347.234C464.095 346.466 464.351 345.605 464.4 344.72V345.05C464.352 344.165 464.096 343.303 463.653 342.535C463.21 341.767 462.592 341.114 461.85 340.63L404.74 307.63C403.949 307.231 403.076 307.023 402.19 307.023C401.304 307.023 400.431 307.231 399.64 307.63L371.24 324.03C370.498 324.512 369.88 325.163 369.437 325.929C368.993 326.696 368.738 327.556 368.69 328.44V328.12C368.738 329.004 368.993 329.864 369.437 330.63C369.88 331.397 370.498 332.048 371.24 332.53L428.35 365.53C429.14 365.931 430.013 366.14 430.899 366.142C431.785 366.144 432.658 365.937 433.45 365.54Z" fill="#37474F"/>
<path d="M430.91 322.77L461.86 340.63C462.602 341.114 463.22 341.767 463.663 342.535C464.106 343.303 464.362 344.165 464.41 345.05V344.72C464.361 345.605 464.105 346.466 463.662 347.234C463.219 348.002 462.602 348.655 461.86 349.14L433.46 365.54C432.674 365.953 431.798 366.163 430.91 366.15V322.77Z" fill="#263238"/>
<path d="M461.86 343.58L433.46 360C432.671 360.404 431.797 360.615 430.91 360.615C430.023 360.615 429.149 360.404 428.36 360L371.25 327C369.84 326.19 369.84 324.87 371.25 324.06L399.65 307.66C400.441 307.261 401.314 307.053 402.2 307.053C403.086 307.053 403.959 307.261 404.75 307.66L461.86 340.66C463.27 341.45 463.27 342.77 461.86 343.58Z" fill="#455A64"/>
<path d="M461.86 338.19V340.9L432.38 357.9C432.056 358.095 431.695 358.221 431.32 358.27C430.67 358.363 430.007 358.233 429.44 357.9L371.25 324.31V321.5L428.36 354.56C429.15 354.961 430.024 355.171 430.91 355.171C431.796 355.171 432.67 354.961 433.46 354.56L461.86 338.19Z" fill="#00B37E"/>
<path opacity="0.2" d="M461.86 338.19V340.9L432.38 357.9C432.056 358.095 431.695 358.221 431.32 358.27H430.9V355.15C431.791 355.169 432.673 354.959 433.46 354.54L461.86 338.19Z" fill="black"/>
<path d="M433.46 354.58L461.86 338.19C462.603 337.706 463.221 337.054 463.664 336.285C464.108 335.517 464.363 334.655 464.41 333.77V328.52C464.363 327.634 464.108 326.773 463.664 326.005C463.221 325.236 462.603 324.584 461.86 324.1L404.75 291.1C403.959 290.701 403.086 290.493 402.2 290.493C401.314 290.493 400.441 290.701 399.65 291.1L371.25 307.49C370.509 307.976 369.891 308.629 369.449 309.396C369.006 310.164 368.749 311.025 368.7 311.91V317.16C368.748 318.033 369.005 318.882 369.448 319.635C369.892 320.389 370.51 321.025 371.25 321.49L428.36 354.55C429.147 354.959 430.02 355.175 430.906 355.181C431.793 355.186 432.668 354.98 433.46 354.58Z" fill="#37474F"/>
<path d="M430.91 306.23L461.86 324.1C462.603 324.584 463.221 325.236 463.664 326.004C464.108 326.773 464.363 327.634 464.41 328.52V333.77C464.363 334.655 464.108 335.517 463.664 336.285C463.221 337.054 462.603 337.706 461.86 338.19L433.46 354.58C432.676 354.999 431.798 355.209 430.91 355.19V306.23Z" fill="#263238"/>
<path d="M461.86 327.05L433.46 343.44C432.669 343.839 431.796 344.047 430.91 344.047C430.024 344.047 429.151 343.839 428.36 343.44L371.25 310.44C369.84 309.63 369.84 308.31 371.25 307.44L399.65 291.05C400.441 290.651 401.314 290.443 402.2 290.443C403.086 290.443 403.959 290.651 404.75 291.05L461.86 324.05C463.27 324.91 463.27 326.23 461.86 327.05Z" fill="#455A64"/>
<path d="M422.25 314C425.4 315.81 425.4 318.74 422.25 320.55C420.483 321.437 418.532 321.9 416.555 321.9C414.577 321.9 412.627 321.437 410.86 320.55C407.72 318.74 407.72 315.81 410.86 314C412.624 313.102 414.575 312.635 416.555 312.635C418.534 312.635 420.486 313.102 422.25 314Z" fill="#00B37E"/>
<path d="M375.88 315.93C376.173 316.12 376.416 316.377 376.59 316.679C376.764 316.982 376.863 317.321 376.88 317.67C376.88 318.31 376.43 318.58 375.88 318.27C375.588 318.081 375.346 317.826 375.172 317.525C374.998 317.224 374.898 316.887 374.88 316.54C374.88 315.89 375.33 315.62 375.88 315.93Z" fill="#00B37E"/>
<path d="M375.88 319.78C376.172 319.971 376.415 320.228 376.589 320.53C376.763 320.832 376.862 321.172 376.88 321.52C376.88 322.16 376.43 322.43 375.88 322.12C375.588 321.931 375.346 321.676 375.172 321.375C374.998 321.074 374.898 320.737 374.88 320.39C374.88 319.74 375.33 319.47 375.88 319.78Z" fill="#00B37E"/>
<path d="M118.06 150.54V135.54L130.73 134.43C130.91 134.414 131.092 134.452 131.25 134.54C131.74 134.81 141.95 140.68 142.11 140.77C142.23 140.84 142.332 140.937 142.41 141.052C142.487 141.168 142.537 141.299 142.556 141.437C142.576 141.574 142.564 141.714 142.521 141.847C142.478 141.979 142.406 142.1 142.31 142.2L128.88 156.76L118.06 150.54Z" fill="#00B37E"/>
<path d="M128.88 156.75L142.31 142.19C142.44 142.054 142.525 141.881 142.553 141.695C142.582 141.509 142.553 141.319 142.47 141.15C142.387 140.981 142.255 140.842 142.09 140.751C141.926 140.659 141.737 140.621 141.55 140.64L128.88 141.74V156.75Z" fill="#00B37E"/>
<path d="M118.06 135.52L128.88 141.75L141.55 140.64C141.699 140.627 141.85 140.647 141.99 140.7C140.99 140.1 131.72 134.78 131.26 134.53C131.097 134.436 130.907 134.397 130.72 134.42L118.06 135.52Z" fill="#00B37E"/>
<path opacity="0.5" d="M118.06 135.52L128.88 141.75L141.55 140.64C141.699 140.627 141.85 140.647 141.99 140.7C140.99 140.1 131.72 134.78 131.26 134.53C131.097 134.436 130.907 134.397 130.72 134.42L118.06 135.52Z" fill="white"/>
<path d="M128.89 123.57C128.827 122.479 128.509 121.417 127.962 120.471C127.415 119.525 126.654 118.719 125.74 118.12L123.18 116.65C122.206 116.152 121.128 115.893 120.035 115.893C118.942 115.893 117.864 116.152 116.89 116.65L77.63 139.36C76.7152 139.955 75.9539 140.759 75.4083 141.704C74.8626 142.649 74.548 143.71 74.49 144.8V188C74.5464 189.092 74.8603 190.155 75.4061 191.102C75.9518 192.049 76.7138 192.854 77.63 193.45L80.19 194.93C81.1658 195.421 82.2428 195.676 83.335 195.676C84.4272 195.676 85.5042 195.421 86.48 194.93L125.74 172.22C126.657 171.624 127.421 170.82 127.968 169.873C128.516 168.926 128.832 167.862 128.89 166.77V123.57Z" fill="#00B37E"/>
<path opacity="0.2" d="M74.49 188C74.5464 189.092 74.8603 190.155 75.4061 191.102C75.9518 192.049 76.7138 192.854 77.63 193.45L80.19 194.93C81.0771 195.373 82.0476 195.624 83.0384 195.667C84.0291 195.711 85.0178 195.544 85.94 195.18C84.46 195.74 83.34 194.9 83.34 193.11V149.91C83.378 148.815 83.6947 147.748 84.26 146.81L75.41 141.7C74.8447 142.638 74.528 143.705 74.49 144.8V188Z" fill="black"/>
<path opacity="0.5" d="M128.78 122.68C128.42 121.34 127.2 120.92 125.78 121.75L86.4799 144.47C85.5485 145.043 84.7832 145.85 84.2599 146.81L75.4199 141.71C75.9424 140.75 76.7035 139.94 77.6299 139.36L116.89 116.65C117.866 116.159 118.943 115.904 120.035 115.904C121.127 115.904 122.204 116.159 123.18 116.65L125.75 118.13C126.538 118.642 127.213 119.31 127.734 120.093C128.255 120.875 128.611 121.755 128.78 122.68Z" fill="white"/>
<path d="M97.66 147.72L101.21 145.67V148.29L104.77 146.24V151.83L108.32 149.77V144.18L111.88 142.13V139.51L115.44 137.45V140.08L118.99 138.02V143.61L122.55 141.56V149.77L118.99 151.83V155.93L115.44 157.99V162.09L111.88 164.15V168.25L108.32 170.31L108.33 174.41L104.77 176.46V172.36L101.21 174.41V170.31L97.66 172.36V168.25L94.1 170.31V166.2L90.54 168.25V160.04L94.1 157.99V152.4L97.66 150.34V147.72Z" fill="white"/>
</svg>
